<?xml version="1.0" encoding="iso-8859-1"?>
<svg xmlns="http://www.w3.org/2000/svg" xmlns:xlink="http://www.w3.org/1999/xlink" version="1.1" viewBox="0 0 376.213 376.213" enable-background="new 0 0 376.213 376.213" width="512px" height="512px">
  <g>
    <g>
      <path d="m276.686,85.503c2.394,0 4.668-1.009 6.293-2.77l23.753-25.822c3.027-3.283 3.01-8.345-0.034-11.611l-23.753-25.48c-1.607-1.727-3.882-2.719-6.259-2.719h-71.72v-8.551c0-4.72-3.831-8.55-8.55-8.55h-17.101c-4.72,0-8.55,3.831-8.55,8.55v8.55h-94.053c-4.72,0-8.55,3.831-8.55,8.55v51.302c0,4.72 3.831,8.55 8.55,8.55h94.053v17.101h-68.505c-1.642,0-3.232,0.462-4.617,1.351l-26.489,16.947c-2.445,1.573-3.933,4.275-3.933,7.165 0,2.89 1.454,5.609 3.882,7.199l26.489,17.254c1.385,0.906 3.01,1.385 4.668,1.385h68.505v17.101h-59.852c-4.72,0-8.55,3.831-8.55,8.55v51.302c0,4.72 3.831,8.55 8.55,8.55h59.852v128.254c0,4.72 3.831,8.55 8.55,8.55h17.101c4.72,0 8.55-3.831 8.55-8.55v-128.253h68.3c2.428,0 4.72-1.026 6.344-2.822l23.308-25.839c2.958-3.266 2.941-8.242-0.034-11.492l-23.308-25.463c-1.607-1.778-3.899-2.787-6.31-2.787h-68.3v-17.101h59.852c4.72,0 8.55-3.831 8.55-8.55v-34.201c0-4.72-3.831-8.55-8.55-8.55h-59.852v-17.1h71.72zm-3.711-51.302l15.818,16.981-15.852,17.22h-67.975v-34.201h68.009zm-187.713,34.201v-34.201h85.503v34.201h-85.503zm19.546,68.403l-13.27-8.636 13.236-8.465h65.991v17.101h-65.957zm14.656,85.503v-34.201h51.302v34.201h-51.302zm150.04-34.202l15.51,16.964-15.562,17.237h-64.486v-34.201h64.538zm-13.236-68.402v17.101h-51.302v-17.101h51.302z" fill="#FFFFFF"/>
    </g>
  </g>
</svg>
