<?xml version="1.0" encoding="iso-8859-1"?>
<!-- Generator: Adobe Illustrator 17.1.0, SVG Export Plug-In . SVG Version: 6.00 Build 0)  -->
<!DOCTYPE svg PUBLIC "-//W3C//DTD SVG 1.1//EN" "http://www.w3.org/Graphics/SVG/1.1/DTD/svg11.dtd">
<svg xmlns="http://www.w3.org/2000/svg" xmlns:xlink="http://www.w3.org/1999/xlink" version="1.1" id="Capa_1" x="0px" y="0px" viewBox="0 0 412.408 412.408" style="enable-background:new 0 0 412.408 412.408;" xml:space="preserve" width="512px" height="512px">
<path id="XMLID_360_" d="M158.174,332.009c8.305,1.488,16.854,2.264,25.579,2.264s17.274-0.777,25.579-2.264  c0.221-0.032,0.44-0.071,0.657-0.119c54.831-10.083,98.937-51.173,113.4-104.357c0.094-0.289,0.173-0.584,0.237-0.883  c3.138-11.833,4.811-24.256,4.811-37.063c0-20.325-4.212-39.683-11.81-57.25c-0.164-0.476-0.364-0.931-0.598-1.362  c-19.111-42.963-58.555-74.958-106.042-83.69c-0.217-0.048-0.435-0.087-0.653-0.119c-8.305-1.488-16.856-2.265-25.582-2.265  s-17.277,0.777-25.582,2.265c-0.219,0.031-0.437,0.071-0.651,0.118c-47.488,8.732-86.933,40.728-106.044,83.691  c-0.233,0.431-0.435,0.886-0.598,1.363c-7.598,17.567-11.81,36.924-11.81,57.249c0,12.821,1.676,25.257,4.821,37.102  c0.06,0.272,0.132,0.541,0.216,0.806c14.457,53.197,58.569,94.311,113.409,104.395C157.732,331.938,157.953,331.978,158.174,332.009  z M310.438,189.587c0,9.469-1.044,18.696-3.023,27.578c-22.995,4.868-46.637,8.343-70.725,10.403  c0.851-12.289,1.293-25.018,1.293-37.981c0-11.248-0.333-22.322-0.977-33.083c22.619-2.159,44.562-5.714,65.652-10.646  C307.689,159.494,310.438,174.226,310.438,189.587z M295.061,129.134c-19.134,4.311-38.99,7.456-59.443,9.42  c-2.533-26.534-7.024-50.509-13.104-69.589C253.685,79.004,279.618,100.812,295.061,129.134z M235.099,245.762  c22.49-1.81,44.615-4.815,66.23-8.999c-13.986,34.73-42.933,61.891-78.816,73.447C228.198,292.369,232.493,270.252,235.099,245.762z   M165.789,64.172c5.869-0.837,11.867-1.27,17.964-1.27s12.095,0.433,17.964,1.27c7.564,18.893,13.092,45.446,15.981,75.792  c-11.165,0.687-22.485,1.032-33.945,1.032c-11.458,0-22.781-0.345-33.943-1.032C152.699,109.617,158.226,83.063,165.789,64.172z   M57.068,189.587c0-15.362,2.748-30.093,7.779-43.729c21.091,4.932,43.035,8.487,65.654,10.646  c-0.644,10.762-0.977,21.835-0.977,33.083c0,12.964,0.442,25.692,1.293,37.981c-24.088-2.06-47.732-5.536-70.727-10.404  C58.112,208.283,57.068,199.057,57.068,189.587z M66.177,236.763c21.615,4.185,43.742,7.189,66.232,9  c2.604,24.49,6.899,46.608,12.585,64.448C109.109,298.654,80.163,271.494,66.177,236.763z M131.891,138.555  c-20.453-1.964-40.313-5.11-59.445-9.42c15.442-28.322,41.376-50.13,72.549-60.169C138.913,88.047,134.423,112.017,131.891,138.555z   M147.525,189.587c0-10.791,0.311-21.394,0.911-31.674c11.617,0.721,23.398,1.083,35.316,1.083c11.92,0,23.698-0.362,35.318-1.083  c0.601,10.279,0.911,20.884,0.911,31.674c0,13.468-0.483,26.638-1.411,39.259c-23.051,1.283-46.584,1.283-69.635,0  C148.009,216.228,147.525,203.053,147.525,189.587z M216.894,246.962c-3.052,27.109-8.264,50.776-15.177,68.042  c-5.869,0.836-11.867,1.27-17.964,1.27s-12.095-0.433-17.964-1.27c-6.912-17.265-12.123-40.932-15.175-68.042  C172.571,248.092,194.935,248.092,216.894,246.962z M192.755,378.965v15.441h38.161c4.971,0,9,4.029,9,9s-4.029,9-9,9h-46.951  c-0.07,0.001-0.14,0.002-0.21,0.002s-0.14-0.001-0.21-0.002h-46.952c-4.971,0-9-4.029-9-9s4.029-9,9-9h38.162v-37.384  c0-4.971,4.029-9,9-9s9,4.029,9,9v3.921c90.443-4.699,162.585-79.762,162.585-171.355c0-91.593-72.142-166.655-162.585-171.354  v3.921c0,4.971-4.029,9-9,9s-9-4.029-9-9V9c0-4.971,4.029-9,9-9C288.292,0,373.34,85.049,373.34,189.587  C373.34,291.109,293.129,374.249,192.755,378.965z" fill="#FFFFFF"/>
<g>
</g>
<g>
</g>
<g>
</g>
<g>
</g>
<g>
</g>
<g>
</g>
<g>
</g>
<g>
</g>
<g>
</g>
<g>
</g>
<g>
</g>
<g>
</g>
<g>
</g>
<g>
</g>
<g>
</g>
</svg>
